<!--?xml version="1.0" standalone="no"?-->              <svg id="sw-js-blob-svg" viewBox="0 0 100 100" xmlns="http://www.w3.org/2000/svg">                    <defs>                         <linearGradient id="sw-gradient" x1="0" x2="1" y1="1" y2="0">                            <stop id="stop1" stop-color="rgba(238, 238, 238, 1)" offset="0%"></stop>                            <stop id="stop2" stop-color="rgba(238, 238, 238, 1)" offset="100%"></stop>                        </linearGradient>                    </defs>                <path fill="url(#sw-gradient)" d="M21.7,-27.3C28,-25.3,32.8,-18.8,34.4,-11.7C36,-4.6,34.3,3,30.5,8.4C26.7,13.8,20.6,17,15.2,18.4C9.8,19.9,4.9,19.5,0.6,18.7C-3.7,17.9,-7.3,16.5,-10.4,14.3C-13.4,12.1,-15.9,9,-19.3,4.8C-22.7,0.6,-27.1,-4.8,-28.3,-11.7C-29.6,-18.6,-27.6,-27,-22.4,-29.2C-17.1,-31.5,-8.6,-27.6,-0.4,-27C7.7,-26.4,15.5,-29.2,21.7,-27.3Z" width="100%" height="100%" transform="translate(50 50)" stroke-width="0" style="transition: all 0.3s ease 0s;" stroke="url(#sw-gradient)"></path>              </svg>